<?xml version="1.0" encoding="utf-8"?>
<!-- Generator: Adobe Illustrator 19.0.0, SVG Export Plug-In . SVG Version: 6.00 Build 0)  -->
<svg version="1.1" id="f31880e0-b367-484e-a419-f98cd1dead11"
	 xmlns="http://www.w3.org/2000/svg" xmlns:xlink="http://www.w3.org/1999/xlink" x="0px" y="0px" viewBox="-13 -48.4 813.7 690.7"
	 style="enable-background:new -13 -48.4 813.7 690.7;" xml:space="preserve">
<style type="text/css">
	.st0{fill:#FFFFFF;}
	.st1{fill:#3F3D56;}
	.st2{fill:#6C63FF;}
	.st3{opacity:0.5;}
	.st4{fill:#47E6B1;}
	.st5{opacity:0.5;fill:#4D8AF0;enable-background:new    ;}
	.st6{opacity:0.5;fill:#F55F44;enable-background:new    ;}
	.st7{opacity:0.5;fill:#47E6B1;enable-background:new    ;}
	.st8{fill:url(#SVGID_1_);}
	.st9{fill:#E0E0E0;}
	.st10{fill:#4D8AF0;}
	.st11{opacity:0.3;fill:#4D8AF0;enable-background:new    ;}
	.st12{fill:url(#SVGID_2_);}
	.st13{fill:#F5F5F5;}
	.st14{fill:#FF5252;}
	.st15{opacity:0.5;fill:#FF5252;enable-background:new    ;}
	.st16{opacity:0.3;fill:#FF5252;enable-background:new    ;}
	.st17{fill:url(#SVGID_3_);}
	.st18{fill:#69F0AE;}
	.st19{opacity:0.5;fill:#69F0AE;enable-background:new    ;}
	.st20{opacity:0.3;fill:#69F0AE;enable-background:new    ;}
	.st21{fill:url(#SVGID_4_);}
	.st22{opacity:0.5;fill:#6C63FF;enable-background:new    ;}
	.st23{opacity:0.3;fill:#6C63FF;enable-background:new    ;}
	.st24{fill:none;stroke:#FFFFFF;stroke-width:4;stroke-miterlimit:10;}
</style>
<title>Specs</title>
<circle class="st0" cx="156.4" cy="56.4" r="6"/>
<circle class="st0" cx="195.4" cy="217.4" r="6"/>
<circle class="st0" cx="201.4" cy="239.4" r="6"/>
<rect x="170.8" y="15" transform="matrix(-0.9993 3.798648e-02 -3.798648e-02 -0.9993 824.9192 586.8376)" class="st1" width="472.1" height="572.6"/>
<rect x="267.1" y="444.7" transform="matrix(-0.9993 3.798634e-02 -3.798634e-02 -0.9993 763.0516 883.6418)" class="st2" width="212" height="8.7"/>
<rect x="269.1" y="494.5" transform="matrix(-0.9993 3.798634e-02 -3.798634e-02 -0.9993 904.2825 980.6393)" class="st2" width="347.5" height="8.7"/>
<rect x="524.9" y="437.2" transform="matrix(-0.9993 3.798634e-02 -3.798634e-02 -0.9993 1155.7313 861.2375)" class="st2" width="89.6" height="8.7"/>
<rect x="268.2" y="473.2" transform="matrix(-0.9993 3.798634e-02 -3.798634e-02 -0.9993 643.8718 942.9694)" class="st2" width="89.6" height="8.7"/>
<rect x="397" y="468.3" transform="matrix(-0.9993 3.798634e-02 -3.798634e-02 -0.9993 901.2952 928.2821)" class="st2" width="89.6" height="8.7"/>
<rect x="525.9" y="463.4" transform="matrix(-0.9993 3.798634e-02 -3.798634e-02 -0.9993 1158.7185 913.5948)" class="st2" width="89.6" height="8.7"/>
<rect x="271.4" y="153.3" transform="matrix(-0.9993 3.798634e-02 -3.798634e-02 -0.9993 812.5029 387.3351)" class="st2" width="262.3" height="96.2"/>
<g class="st3">
	
		<rect x="688.8" y="221.8" transform="matrix(-0.9483 -0.3173 0.3173 -0.9483 1271.8427 667.6236)" class="st4" width="3" height="17"/>
	
		<rect x="688.8" y="221.8" transform="matrix(0.3173 -0.9483 0.9483 0.3173 252.9164 811.8292)" class="st4" width="3" height="17"/>
</g>
<g class="st3">
	<rect x="181.4" y="342.4" class="st4" width="3" height="17"/>
	<rect x="174.4" y="349.4" class="st4" width="17" height="3"/>
</g>
<g class="st3">
	
		<rect x="198.4" y="395.2" transform="matrix(-0.9483 -0.3173 0.3173 -0.9483 261.4815 849.8949)" class="st4" width="3" height="17"/>
	
		<rect x="198.4" y="395.2" transform="matrix(0.3173 -0.9483 0.9483 0.3173 -246.3003 465.2042)" class="st4" width="3" height="17"/>
</g>
<path class="st5" d="M741.6,534.7c-1.7-0.7-2.6-2.7-2-4.4c0-0.1,0.1-0.3,0.1-0.4l0,0c0.1-1-0.7-1.9-1.7-2c-0.6,0-1.2,0.2-1.6,0.7
	l0,0c-0.1,0.1-0.2,0.2-0.2,0.4c-0.7,1.7-2.7,2.6-4.4,2c-0.1,0-0.3-0.1-0.4-0.1l0,0c-1-0.1-1.9,0.7-2,1.7c0,0.6,0.2,1.2,0.7,1.6l0,0
	c0.1,0.1,0.2,0.2,0.4,0.2c1.7,0.7,2.6,2.7,2,4.4c0,0.1-0.1,0.3-0.1,0.4l0,0c-0.1,1,0.7,1.9,1.7,2c0.6,0,1.2-0.2,1.6-0.7l0,0
	c0.1-0.1,0.2-0.2,0.2-0.4c0.7-1.7,2.7-2.6,4.4-2c0.1,0,0.3,0.1,0.4,0.1l0,0c1,0.1,1.9-0.7,2-1.7c0-0.6-0.2-1.2-0.7-1.6l0,0
	C741.9,534.8,741.7,534.8,741.6,534.7z"/>
<path class="st5" d="M665.6,635.7c-1.7-0.7-2.6-2.7-2-4.4c0-0.1,0.1-0.3,0.1-0.4l0,0c0.1-1-0.7-1.9-1.7-2c-0.6,0-1.2,0.2-1.6,0.7
	l0,0c-0.1,0.1-0.2,0.2-0.2,0.4c-0.7,1.7-2.7,2.6-4.4,2c-0.1,0-0.3-0.1-0.4-0.1l0,0c-1-0.1-1.9,0.7-2,1.7c0,0.6,0.2,1.2,0.7,1.6l0,0
	c0.1,0.1,0.2,0.2,0.4,0.2c1.7,0.7,2.6,2.7,2,4.4c0,0.1-0.1,0.3-0.1,0.4l0,0c-0.1,1,0.7,1.9,1.7,2c0.6,0,1.2-0.2,1.6-0.7l0,0
	c0.1-0.1,0.2-0.2,0.2-0.4c0.7-1.7,2.7-2.6,4.4-2c0.1,0,0.3,0.1,0.4,0.1l0,0c1,0.1,1.9-0.7,2-1.7c0-0.6-0.2-1.2-0.7-1.6l0,0
	C665.9,635.8,665.7,635.8,665.6,635.7z"/>
<path class="st5" d="M-0.7,388.4c-1.7-0.7-2.6-2.7-2-4.4c0-0.1,0.1-0.3,0.1-0.4l0,0c0.1-1-0.7-1.9-1.7-2c-0.6,0-1.2,0.2-1.6,0.7l0,0
	c-0.1,0.1-0.2,0.2-0.2,0.4c-0.7,1.7-2.7,2.6-4.4,2c-0.1,0-0.3-0.1-0.4-0.1l0,0c-1-0.1-1.9,0.7-2,1.7c0,0.6,0.2,1.2,0.7,1.6l0,0
	c0.1,0.1,0.2,0.2,0.4,0.2c1.7,0.7,2.6,2.7,2,4.4c0,0.1-0.1,0.3-0.1,0.4l0,0c-0.1,1,0.7,1.9,1.7,2c0.6,0,1.2-0.2,1.6-0.7l0,0
	c0.1-0.1,0.2-0.2,0.2-0.4c0.7-1.7,2.7-2.6,4.4-2c0.1,0,0.3,0.1,0.4,0.1l0,0c1,0.1,1.9-0.7,2-1.7c0-0.6-0.2-1.2-0.7-1.6l0,0
	C-0.5,388.5-0.6,388.4-0.7,388.4z"/>
<circle class="st6" cx="442.6" cy="23.5" r="6"/>
<circle class="st5" cx="83.4" cy="191.4" r="6"/>
<circle class="st7" cx="794.7" cy="356.7" r="6"/>
<circle class="st6" cx="10.7" cy="246.7" r="6"/>
<g class="st3">
	
		<linearGradient id="SVGID_1_" gradientUnits="userSpaceOnUse" x1="559.3679" y1="-141.98" x2="559.3679" y2="127.2902" gradientTransform="matrix(0.9452 0.3266 0.3266 -0.9452 62.5199 209.0789)">
		<stop  offset="0" style="stop-color:#808080;stop-opacity:0.25"/>
		<stop  offset="0.5351" style="stop-color:#808080;stop-opacity:0.12"/>
		<stop  offset="1" style="stop-color:#808080;stop-opacity:0.1"/>
	</linearGradient>
	<polygon class="st8" points="506,512.5 593.9,258 671.7,284.9 583.8,539.4 	"/>
</g>
<rect x="550.3" y="266.1" transform="matrix(-0.9452 -0.3266 0.3266 -0.9452 1016.3425 968.4356)" class="st9" width="78.3" height="265.7"/>
<rect x="594.8" y="275.9" transform="matrix(-0.9452 -0.3266 0.3266 -0.9452 1111.6998 793.7639)" class="st10" width="55.3" height="55.3"/>
<rect x="573" y="339" transform="matrix(-0.9452 -0.3266 0.3266 -0.9452 1048.6451 909.4634)" class="st5" width="55.3" height="55.3"/>
<rect x="551.2" y="402.2" transform="matrix(-0.9452 -0.3266 0.3266 -0.9452 985.5905 1025.163)" class="st11" width="55.3" height="55.3"/>
<g class="st3">
	
		<linearGradient id="SVGID_2_" gradientUnits="userSpaceOnUse" x1="529.5382" y1="-240.4655" x2="529.5382" y2="27.8016" gradientTransform="matrix(0.9999 1.245237e-02 1.245237e-02 -0.9999 13.1395 291.7364)">
		<stop  offset="0" style="stop-color:#808080;stop-opacity:0.25"/>
		<stop  offset="0.5351" style="stop-color:#808080;stop-opacity:0.12"/>
		<stop  offset="1" style="stop-color:#808080;stop-opacity:0.1"/>
	</linearGradient>
	<polygon class="st12" points="501.8,270 584.1,271 580.8,539.3 498.5,538.3 	"/>
</g>
<rect x="502.9" y="272.3" transform="matrix(-0.9999 -1.244788e-02 1.244788e-02 -0.9999 1078.8987 816.0281)" class="st13" width="78.3" height="264.7"/>
<rect x="515.6" y="276.6" transform="matrix(-0.9999 -1.244788e-02 1.244788e-02 -0.9999 1082.7474 615.2817)" class="st14" width="55.3" height="55.3"/>
<rect x="514.8" y="343.4" transform="matrix(-0.9999 -1.244788e-02 1.244788e-02 -0.9999 1080.2529 748.8657)" class="st15" width="55.3" height="55.3"/>
<rect x="514" y="410.2" transform="matrix(-0.9999 -1.244788e-02 1.244788e-02 -0.9999 1077.7582 882.4497)" class="st16" width="55.3" height="55.3"/>
<g class="st3">
	
		<linearGradient id="SVGID_3_" gradientUnits="userSpaceOnUse" x1="486.1949" y1="-247.7709" x2="486.1949" y2="20.4963" gradientTransform="matrix(0.9817 -0.1905 -0.1905 -0.9817 18.3529 393.5956)">
		<stop  offset="0" style="stop-color:#808080;stop-opacity:0.25"/>
		<stop  offset="0.5351" style="stop-color:#808080;stop-opacity:0.12"/>
		<stop  offset="1" style="stop-color:#808080;stop-opacity:0.1"/>
	</linearGradient>
	<polygon class="st17" points="451.3,288.7 532.2,273 583.3,536.4 502.4,552.1 	"/>
</g>
<rect x="478.8" y="280.1" transform="matrix(-0.9817 0.1905 -0.1905 -0.9817 1104.983 718.6065)" class="st13" width="78.3" height="264.7"/>
<rect x="471.2" y="286.2" transform="matrix(-0.9817 0.1905 -0.1905 -0.9817 1048.3369 526.9356)" class="st18" width="55.3" height="55.3"/>
<rect x="483.9" y="351.8" transform="matrix(-0.9817 0.1905 -0.1905 -0.9817 1086.0471 654.4744)" class="st19" width="55.3" height="55.3"/>
<rect x="496.6" y="417.3" transform="matrix(-0.9817 0.1905 -0.1905 -0.9817 1123.7574 782.013)" class="st20" width="55.3" height="55.3"/>
<g class="st3">
	
		<linearGradient id="SVGID_4_" gradientUnits="userSpaceOnUse" x1="464.0479" y1="-261.0057" x2="464.0479" y2="7.2615" gradientTransform="matrix(0.9501 -0.3121 -0.3121 -0.9501 20.7174 447.6689)">
		<stop  offset="0" style="stop-color:#808080;stop-opacity:0.25"/>
		<stop  offset="0.5351" style="stop-color:#808080;stop-opacity:0.12"/>
		<stop  offset="1" style="stop-color:#808080;stop-opacity:0.1"/>
	</linearGradient>
	<polygon class="st21" points="420.2,308.8 498.4,283.1 582.1,538 503.9,563.7 	"/>
</g>
<rect x="462.7" y="290.8" transform="matrix(-0.9501 0.3121 -0.3121 -0.9501 1110.6488 668.6164)" class="st0" width="78.3" height="264.7"/>
<rect x="442.8" y="300.1" transform="matrix(-0.9501 0.3121 -0.3121 -0.9501 1019.788 492.3973)" class="st2" width="55.3" height="55.3"/>
<rect x="463.7" y="363.6" transform="matrix(-0.9501 0.3121 -0.3121 -0.9501 1080.2495 609.6588)" class="st22" width="55.3" height="55.3"/>
<rect x="484.5" y="427.1" transform="matrix(-0.9501 0.3121 -0.3121 -0.9501 1140.7108 726.9202)" class="st23" width="55.3" height="55.3"/>
<circle class="st2" cx="629.5" cy="18.1" r="22.6"/>
<line class="st24" x1="618.7" y1="11.7" x2="641.8" y2="26.9"/>
<line class="st24" x1="621.5" y1="30.5" x2="637.8" y2="8.1"/>
</svg>
