<?xml version="1.0" encoding="utf-8"?>
<!-- Generator: Adobe Illustrator 19.0.0, SVG Export Plug-In . SVG Version: 6.00 Build 0)  -->
<svg version="1.1" id="adf35c87-b782-4e77-99e1-73b1e980183a"
	 xmlns="http://www.w3.org/2000/svg" xmlns:xlink="http://www.w3.org/1999/xlink" x="0px" y="0px" viewBox="144 -110.5 1130 814.8"
	 style="enable-background:new 144 -110.5 1130 814.8;" xml:space="preserve">
<style type="text/css">
	.st0{opacity:0.1;fill:#6C63FF;enable-background:new    ;}
	.st1{opacity:0.9;}
	.st2{fill:#3A3768;}
	.st3{fill:#E6E8EC;}
	.st4{opacity:0.5;fill:#6C63FF;enable-background:new    ;}
	.st5{opacity:0.1;enable-background:new    ;}
	.st6{fill:#6C63FF;}
	.st7{fill:url(#SVGID_1_);}
	.st8{fill:#EE8E9E;}
	.st9{fill:#65617D;}
	.st10{fill:#3F3D56;}
	.st11{opacity:5.000000e-02;enable-background:new    ;}
	.st12{fill:#E8EAF2;}
	.st13{fill:#303D5C;}
</style>
<title>email campaign</title>
<path class="st0" d="M800.5,16c-72.4-2.5-141.4-25.9-207.3-51.5S462.1-89.4,391.4-103c-45.5-8.7-97.5-9.9-134.1,14.4
	C222-65.1,210.6-24.6,204.5,13c-4.6,28.3-7.3,58,5.3,84.5c8.8,18.4,24.3,33.8,35.1,51.4c37.5,61.2,11,136.8-29.6,196.6
	c-19,28.1-41.1,54.8-55.8,84.7s-21.5,64.1-8.6,94.5c12.8,30.2,43.1,52.9,76,68.8c66.8,32.4,145.5,41.7,222.3,46.9
	c169.9,11.6,340.8,6.6,511.2,1.5c63.1-1.9,126.4-3.8,188.4-13.5c34.4-5.4,70-14,95-34.8c31.8-26.3,39.6-70.9,18.3-104
	c-35.7-55.4-134.3-69.2-159.3-128.6c-13.7-32.7,0.4-69.2,20.3-99.5c42.8-65.1,114.5-122.2,118.3-196.6
	c2.6-51.1-31.9-102.3-85.2-126.5c-55.9-25.3-133.4-22.2-174.6,19.8C939.1,1.6,864.5,18.2,800.5,16z"/>
<g class="st1">
	<path class="st2" d="M870.6,128.4h5.3c1.3,0,2.3,1,2.3,2.3v77.2c0,1.3-1,2.3-2.3,2.3h-5.3c-1.3,0-2.3-1-2.3-2.3v-77.2
		C868.3,129.4,869.3,128.4,870.6,128.4z"/>
	<path class="st2" d="M541,64.3h1c1.3,0,2.3,1,2.3,2.3v22.3c0,1.3-1,2.3-2.3,2.3h-1c-1.3,0-2.3-1-2.3-2.3V66.6
		C538.7,65.4,539.7,64.3,541,64.3z"/>
	<path class="st2" d="M540.8,113.6h1.7c1.3,0,2.3,1,2.3,2.3v42.3c0,1.3-1,2.3-2.3,2.3h-1.7c-1.3,0-2.3-1-2.3-2.3v-42.3
		C538.5,114.6,539.5,113.6,540.8,113.6z"/>
	<path class="st2" d="M540.9,176.8h1.4c1.3,0,2.3,1,2.3,2.3v42.7c0,1.3-1,2.3-2.3,2.3h-1.4c-1.3,0-2.3-1-2.3-2.3v-42.7
		C538.6,177.8,539.6,176.8,540.9,176.8z"/>
	<path class="st2" d="M580.8-24.6h253.8c21.5,0,39,17.5,39,39v596.3c0,21.5-17.5,39-39,39H580.8c-21.5,0-39-17.5-39-39V14.4
		C541.8-7.1,559.3-24.6,580.8-24.6z"/>
	<path class="st3" d="M679.6-4.5h38.6c2.1,0,3.9,1.7,3.9,3.9v1.7c0,2.1-1.7,3.9-3.9,3.9h-38.6c-2.1,0-3.9-1.7-3.9-3.9v-1.7
		C675.7-2.7,677.5-4.5,679.6-4.5z"/>
	<circle class="st3" cx="734.4" cy="0.2" r="5.3"/>
</g>
<path class="st4" d="M826.8-7h-38v4.6c0,12-9.7,21.7-21.7,21.7c0,0,0,0,0,0H646c-12,0-21.7-9.7-21.7-21.7V-7h-35.6
	c-14.6,0-26.4,11.8-26.4,26.4l0,0v586.4c0,14.6,11.8,26.3,26.4,26.3h238.1c14.6,0,26.3-11.8,26.3-26.3V19.3
	C853.1,4.8,841.3-7,826.8-7z"/>
<circle class="st3" cx="583.8" cy="114" r="12.3"/>
<rect x="622.5" y="126.3" class="st3" width="171.3" height="6.7"/>
<rect x="623" y="140.9" class="st3" width="171.3" height="6.7"/>
<rect x="623.6" y="155.4" class="st3" width="171.3" height="6.7"/>
<circle class="st3" cx="583.8" cy="198" r="12.3"/>
<rect x="622.5" y="210.3" class="st3" width="171.3" height="6.7"/>
<rect x="623" y="224.8" class="st3" width="171.3" height="6.7"/>
<rect x="623.6" y="239.4" class="st3" width="171.3" height="6.7"/>
<circle class="st3" cx="583.8" cy="281.9" r="12.3"/>
<rect x="622.5" y="294.2" class="st3" width="171.3" height="6.7"/>
<rect x="623" y="308.8" class="st3" width="171.3" height="6.7"/>
<rect x="623.6" y="323.3" class="st3" width="171.3" height="6.7"/>
<circle class="st3" cx="583.8" cy="365.9" r="12.3"/>
<rect x="622.5" y="378.2" class="st3" width="171.3" height="6.7"/>
<rect x="623" y="392.7" class="st3" width="171.3" height="6.7"/>
<rect x="623.6" y="407.3" class="st3" width="171.3" height="6.7"/>
<circle class="st3" cx="583.8" cy="449.8" r="12.3"/>
<rect x="622.5" y="462.1" class="st3" width="171.3" height="6.7"/>
<rect x="623" y="476.7" class="st3" width="171.3" height="6.7"/>
<rect x="623.6" y="491.2" class="st3" width="171.3" height="6.7"/>
<circle class="st3" cx="583.8" cy="533.8" r="12.3"/>
<rect x="622.5" y="546.1" class="st3" width="171.3" height="6.7"/>
<rect x="623" y="560.6" class="st3" width="171.3" height="6.7"/>
<rect x="623.6" y="575.2" class="st3" width="171.3" height="6.7"/>
<circle class="st5" cx="794.3" cy="581.9" r="31.3"/>
<circle class="st6" cx="794.3" cy="581.9" r="28"/>
<path class="st6" d="M458.1,5.3l-54.7,29.6c-0.5,0.3-0.7,1-0.4,1.6c0.1,0.2,0.3,0.3,0.5,0.4l9.3,3.5c0.5,0.2,1,0.6,1.2,1.1l7.2,14.9
	c0.1,0.7,1.4,0.8,1.4,0.2l-1.1-12.3c0.1-0.9,0.4-1.8,1-2.5L450.9,14c0.2-0.2,0.4-0.2,0.6-0.2c0.3,0.1,0.5,0.5,0.4,0.8
	c0,0.1-0.1,0.1-0.1,0.2l-24.5,30.1c-0.5,0.7-0.9,1.6-1,2.5L425,58c0.1,0.9,0.9,1.3,1.4,0.4l5.3-6.2c0.3-0.5,1-0.6,1.5-0.3
	c0,0,0,0,0,0l13.6,9.9c0.5,0.4,1.2,0.3,1.5-0.2c0.1-0.1,0.2-0.3,0.2-0.4l11.1-54.7c0.1-0.6-0.2-1.2-0.8-1.3
	C458.6,5.1,458.3,5.2,458.1,5.3L458.1,5.3z"/>
<path class="st6" d="M1036,16.9l-54.7,29.6c-0.5,0.3-0.7,1-0.4,1.6c0.1,0.2,0.3,0.3,0.5,0.4l9.3,3.5c0.5,0.2,1,0.6,1.2,1.1l7.3,14.9
	c0.1,0.7,1.3,0.8,1.4,0.2l-1.1-12.4c0.1-0.9,0.4-1.8,1-2.5l28.4-27.8c0.2-0.2,0.4-0.2,0.6-0.2c0.3,0.1,0.5,0.5,0.5,0.8
	c0,0.1-0.1,0.1-0.1,0.2l-24.5,29.9c-0.5,0.7-0.9,1.6-1,2.5l-1.5,10.7c0.1,0.9,0.8,1.3,1.4,0.4l5.3-6.2c0.3-0.5,1-0.6,1.5-0.3
	c0,0,0,0,0,0l13.6,9.9c0.5,0.4,1.2,0.3,1.5-0.2c0.1-0.1,0.2-0.3,0.2-0.4l11.1-54.7c0.1-0.6-0.2-1.2-0.8-1.3
	C1036.5,16.7,1036.2,16.7,1036,16.9L1036,16.9z"/>
<path class="st6" d="M698.3-91.4l-37.4,20.2c-0.4,0.2-0.5,0.7-0.3,1.1c0.1,0.2,0.2,0.3,0.4,0.3l6.4,2.4c0.4,0.1,0.7,0.4,0.8,0.8
	l5,10.2c0.1,0.4,0.9,0.6,0.9,0.1l-0.8-8.4c0-0.6,0.3-1.2,0.7-1.7l19.4-19c0.1-0.1,0.3-0.2,0.4-0.1c0.2,0.1,0.4,0.3,0.3,0.5
	c0,0.1,0,0.1-0.1,0.2l-16.7,20.4c-0.4,0.5-0.6,1.1-0.7,1.7l-1,7.3c0.1,0.6,0.6,0.9,1,0.3l3.6-4.2c0.2-0.3,0.7-0.4,1-0.2l9.3,6.8
	c0.3,0.2,0.8,0.2,1-0.2c0.1-0.1,0.1-0.2,0.1-0.3l7.6-37.3c0.1-0.4-0.1-0.8-0.5-0.9C698.6-91.6,698.4-91.5,698.3-91.4L698.3-91.4z"/>
<path class="st6" d="M910.9-110.5l-37.4,20.2c-0.4,0.2-0.5,0.7-0.3,1.1c0.1,0.1,0.2,0.3,0.4,0.3l6.4,2.4c0.4,0.1,0.7,0.4,0.8,0.8
	l5,10.2c0.1,0.4,0.9,0.6,0.9,0.1l-0.7-8.4c0-0.6,0.3-1.2,0.7-1.7l19.4-19c0.1-0.1,0.3-0.2,0.4-0.1c0.2,0.1,0.4,0.3,0.3,0.5
	c0,0.1,0,0.1-0.1,0.2L890-83.4c-0.4,0.5-0.6,1.1-0.7,1.7l-1,7.3c0.1,0.6,0.6,0.9,1,0.3l3.6-4.2c0.2-0.3,0.7-0.4,1-0.2c0,0,0,0,0,0
	l9.3,6.8c0.3,0.2,0.8,0.2,1-0.2c0.1-0.1,0.1-0.2,0.1-0.3l7.6-37.3c0.1-0.4-0.1-0.8-0.5-0.9C911.3-110.6,911.1-110.5,910.9-110.5
	L910.9-110.5z"/>
<path class="st6" d="M1053.1,149.3l-110.3-9.1c-1.1-0.1-2.1,0.7-2.2,1.8c-0.1,0.5,0.1,0.9,0.3,1.3l10.5,14.3
	c0.6,0.8,0.9,1.9,0.7,2.9l-3.7,29.3c-0.4,1.1,1.2,2.6,1.9,1.6l10.4-19.5c1-1.3,2.4-2.3,3.9-2.7l69.3-13.8c0.4-0.1,0.8,0,1.1,0.3
	c0.4,0.5,0.4,1.2,0,1.6c-0.1,0.1-0.3,0.2-0.4,0.3l-65.5,20.8c-1.5,0.6-2.8,1.5-3.8,2.7l-12.5,14.5c-0.7,1.5,0,2.7,1.7,2.1l13.9-4.1
	c1-0.4,2.2,0.1,2.6,1.1l10.6,27.9c0.4,1,1.6,1.5,2.6,1.1c0.2-0.1,0.4-0.2,0.6-0.4l69.8-70.6c0.8-0.8,0.8-2.1,0-2.8
	C1053.9,149.5,1053.5,149.3,1053.1,149.3z"/>
<linearGradient id="SVGID_1_" gradientUnits="userSpaceOnUse" x1="875.6382" y1="-147.8905" x2="875.6382" y2="349.25" gradientTransform="matrix(-1 0 0 -1 1729.16 549.6)">
	<stop  offset="0" style="stop-color:#808080;stop-opacity:0.25"/>
	<stop  offset="0.54" style="stop-color:#808080;stop-opacity:0.12"/>
	<stop  offset="1" style="stop-color:#808080;stop-opacity:0.1"/>
</linearGradient>
<path class="st7" d="M755.7,260.5c1.1,1.4,2.3,2.7,3.8,3.8c0.9,0.8,1.9,1.6,2.9,2.3c0.3,0.2,0.6,0.4,0.9,0.6c0,0-0.1,0.1-0.1,0.2
	c-0.2,0.4-0.3,0.9-0.3,1.4c0.2,0.6,0.6,1.1,1.1,1.4c2.3,2.2,3.9,5,4.5,8.1c0.3,1.8-0.9,3.8-0.8,5.6c0.2,1.8,0.7,3.6,1.4,5.2
	c1.5,3.9,3.2,7.9,6.2,10.7c0.7,6.2,3.1,12.2,7,17.1c3.2,4.1,7.5,7.2,11.7,10.3c1.3,1.1,2.8,2,4.3,2.7c1.4,0.5,2.8,0.9,4.3,1.1
	c12.4,2.5,25,3.9,37.7,4.3c0.4,7.5,0.5,15.1,0.5,22.6c0.1,1.2-0.1,2.5-0.5,3.7c-0.6,1.1-1.3,2.1-2.2,3.1c-2.9,3.8-3,9.1-2.8,13.9
	c0.3,5.6,1,11.2,2,16.8c1.3,7.1,0.1,14.9,2.6,21.7c1,2.7,2,5.3,3,8c0.3,0.7,0.5,1.6,0.6,2.4c0,1.8-1.2,3.2-2,4.8
	c-1.2,2.2-1.8,4.7-1.8,7.3c0,0.3,0.1,0.6,0.2,0.8c0.3,0.4,1,0.4,1.5,0.3c2.2-0.3,4.4-0.5,6.7-0.6c-0.4,0.5-0.8,1-1.1,1.6
	c-0.5,0.9-1,1.9-1.4,2.9c-0.8,1.7-1.4,3.4-1.9,5.2c-0.1,0.3-0.1,0.5-0.2,0.8c-0.1,0.5-0.2,1.1-0.3,1.6c-0.5,3.2-0.7,6.4-0.6,9.6
	c-0.3,6-0.6,12.2-1.2,14.1c-0.8,2.6,0.2,6.7,1.2,10.7c0,2.7,0.5,5.4,1.5,8c0.1,2.8,0.4,5.7,1,8.4c3.5,19.5,7.1,38.9,11,58.3
	c0.3,1.7,0.7,3.4,1.1,5c1.5,5.4,4,10.4,7.5,14.8c3.1,3.9,5.7,8.1,7.8,12.5c-0.2,1.1-0.5,2.1-0.7,3.2c-2.2,9.3-5.1,18.5-6.1,27.9
	c-0.4,3.8-0.5,7.7-2,11.2c-0.8,1.8-1.9,3.5-2,5.4c-0.1,1.2,0.2,2.5,0.8,3.5c-0.3,0.2-0.5,0.4-0.8,0.6l-0.4,0.3
	c-2.8,2.3-6.7,2.7-10.2,3.6s-7.3,2.8-8.3,6.2c-0.1,0.2-0.1,0.4-0.2,0.7c-0.6,3.2,1.3,6.6,4,8.5c2.9,2,6.5,2.6,10,3.1
	s7.1,0.8,10.3,2.4c2.7,1.4,5,3.6,8,4.6l0.5,0.2c-0.7,0.4-1.3,0.8-2,1.1c-3,1.5-6.2,2.5-9.6,3c-3.4,0.5-7.4,0.7-9.2,3.6l0,0
	c-1.4,2.4-0.4,5.7,1.7,7.7s4.9,2.8,7.6,3.4c6.3,1.2,12.6,2,19,2.4l6.2,0.5c6,0.5,12.1,0.9,18.2,1c7.5,0,15-0.6,22.4-2
	c0.7,0,1.3-0.3,1.8-0.9c0.2-0.4,0.3-0.9,0.3-1.4c-0.2-7.6-1.1-15.2-2.8-22.6c-0.5-2.2-3.5,0.8-5.2,2.7c-0.2-1.1-0.5-2.2-0.8-3.3
	l1.3-0.6c1-0.4,1.9-1.1,2.4-2c0.3-0.8,0.4-1.6,0.3-2.3c-0.2-4.9-0.5-9.9-2.9-14.2c-1.5-2.6-3.4-4.9-5.7-6.9
	c-0.7-15.3-2.2-30.7-5.5-45.6c-1.7-7.7-3.8-15.4-8.3-21.8c-0.5-0.8-1.2-1.6-1.8-2.4c-0.5-7.4-1.4-14.7-2.7-21.9c-0.3-1-0.3-2,0-2.9
	c0.4-0.8,1-1.6,1.6-2.2c2.7-3.4,1.6-8.3,1.3-12.7c-0.4-6.2,1-12.4,2.5-18.5c1.8-7.5,3.6-15,5.4-22.5c0.4-2.1,1.1-4.2,1.9-6.2
	c1.3-2.8,3.2-5.3,4.9-7.9c5-8,7.4-17.3,6.8-26.7c1,0.4,2,0.7,3.1,1.1c0.8-6.3-1.9-13.4,0-19.3c3.3-2.4,5.9-5.5,7.7-9.1
	c1.5-3.3,1.9-7.1,3.5-10.3c0.9-1.8,2.1-3.6,2.6-5.5c0.8-3-0.2-6.1-0.2-9.2c0.1-6.7,5-12.9,3.9-19.5c-0.5-3.1-2.3-6-2.2-9.2
	c0.1-1.7,0.6-3.4,1.3-5c3.7-9.8,7.3-20.1,5.4-30.4c-0.5-2.6-1.3-5.2-1.2-7.9c0.2-3,1.6-6,1.2-9c-0.2-1.2-0.6-2.2-1.4-3.2
	c1.3-2,2.4-4.2,3.3-6.4c0.6-1.3,0.9-2.7,0.9-4.1c-0.3-2-1.3-3.7-2.9-4.9c-1.6-1.1-3.2-2.1-5-2.9c-0.6-0.2-1.1-0.6-1.5-1
	c-0.3-0.5-0.6-1-0.8-1.6c-1-1.7-3.1-2.2-4.8-3.3c-6.1-3.7-5.5-13.3-10.7-18.2c-3.6-3.2-9-3.5-13-0.7c-0.5,0.5-1.1,0.8-1.8,0.9
	c-0.7-0.2-1.3-0.5-1.8-1c-1.3-0.9-2.8-1.3-4.4-1.2c-1-3.8-1.4-7.7-1.3-11.7h0.5c0.6,0,1.2,0,1.8-0.2c2.7-0.8,4.2-3.5,5.3-6.1
	c1-2.2,1.7-4.4,2.3-6.7c0.1-0.2,0.1-0.4,0.2-0.6c5.1,3.6,11.1,7.4,12.5,6.6c2.6-1.5-11.8-11.7-11.8-11.7l0,0l0,0
	c1.7-1.5,2.6-4.2,3-6.6c0.8-4.8,1.2-9.7,0.1-14.5s-4-9.2-8.2-11.4c-1.9-1-4.2-1.7-5.6-3.2l0,0c-0.2-0.2-0.4-0.5-0.5-0.7l0,0
	c-0.1-0.1-0.2-0.3-0.2-0.4c-0.2-0.4-0.4-0.8-0.6-1.2c-0.8-0.9-2.2-0.6-3.4-0.5h-0.4h-0.3h-0.3c-4.3,0.1-8.4-2.3-12.7-2.3
	c-4.7,0-8.8,2.7-12.9,4.6c-0.8,0.4-1.6,0.7-2.4,1.1c-2.6,1.2-4.7,2.5-6,5.5c-0.8,1-1.4,2.1-1.7,3.4c-0.1,0.6-0.2,1.1-0.2,1.7
	c-11.2,11.1-11.3,29.2-0.2,40.5c3.6,3.6,8.1,6.2,13.1,7.5c0.1,0.3,0.2,0.6,0.3,0.8c0.9,2.6,1.3,5.3,1.2,8c0,0.2,0,0.4,0,0.6
	c-2.2,0.5-4.3,1.4-6.2,2.5c-2.4,1.4-4.3,3.7-5.2,6.4c-0.1,0.2-0.1,0.4-0.2,0.6c-1.5-0.5-3.1-0.8-4.7-0.8c-1.5,0-3.1,0.1-4,1.2
	c-0.4,0.4-0.6,1-0.8,1.5c-0.5,0.5-0.7,1.4-1,2.1c-1.2,2.1-4.3,1.4-6.7,2c-2.5,0.6-4.6,3-7.2,3c-1-0.2-2-0.2-3-0.1
	c-1,0.2-1.8,1.6-1,2.3c-1.2-0.1-2.4,0.4-3,1.5c-0.7,0.9-1.2,2.1-2,2.9c-0.7-1-1.9-1.5-3.1-1.2c-1.2,0.3-2.3,0.7-3.3,1.3
	c-0.5,0.2-0.9,0.4-1.5,0.5c-0.6,0-1.2,0-1.8-0.2c-2.8-0.5-5.7-0.1-8.3,1.2c-2.3,1.1-4.5-0.9-7-1.1c-0.9,0-1.8-0.2-2.6-0.8
	c-0.5-0.6-0.8-1.3-1-2c-1.1-3.3-3.9-5.7-7.3-6.5c1.4-4.3-0.8-8.9-5-10.5c0.3-3-0.8-6-3.1-7.9c-0.6-0.4-1.1-0.8-1.6-1.2
	c-0.7-0.8-1.2-1.7-1.5-2.7l-2.2-5.9c-1-0.2-1.8-0.6-2.7-0.8c0-0.2,0-0.4,0-0.6c0-2-0.4-4-1-5.9c-1.1-3.1-2.7-6-4.7-8.6
	c-2.1-3-4.5-5.9-7.6-7.7c-1-0.6-2.1-1.1-3.2-1.5l-5.7-2.4c-0.3-0.2-0.7-0.3-1-0.3c-1.5,0-1.8,2.4-1,3.6c1.7,2.6,5.7,3.3,6.8,6.2
	c-1.9,0.1-3.6,1.3-4.1,3.2c0,0.5-0.2,0.9-0.5,1.3c-0.5,0.4-1.3,0.2-1.9,0.5c-1,0.5-0.6,2.1-0.7,3.2c-0.2,1-0.6,2-1,2.9
	C754.3,257.1,754.6,259,755.7,260.5z M892.8,661.5c0-0.6-0.1-1.2-0.1-1.8c0.1,0.3,0.2,0.6,0.3,0.9c1,2.6,2.1,5.2,3.3,7.8l-0.2-0.1
	c-0.9-0.4-1.8-0.7-2.7-0.8c-0.2,0-0.5,0-0.8-0.1C893,665.6,893,663.6,892.8,661.5L892.8,661.5z"/>
<path class="st8" d="M877.3,275.7c-0.1,4.2-1.5,8.2-1.7,12.4c12.3,0.6,24.4-5.4,36.6-3.5c-3.4-2.2-5.2-6.2-6.3-10.1
	c-1.4-5-1.8-10.3-1.2-15.5c0-0.3,0.1-0.6,0.2-0.9c0.5-2,1.6-4.9,1.3-6.5c-0.4-2.1-2.4-1.7-4.2-1.6c-5.5,0.4-11,1.1-16.4,2.1
	c-1.4,0.2-15.2,3.7-15.4,3.3c2.4,3.9,4.4,8,6,12.3C876.9,270.3,877.3,273,877.3,275.7z"/>
<path class="st8" d="M755.7,262.8c1.1,1.4,2.3,2.7,3.8,3.8c0.9,0.8,1.9,1.5,2.9,2.2c1.8,1.4,3.9,2.2,6.2,2.5c2.9,0.2,9.1-1.5,11-4
	c0.8-1.3,1.1-2.7,1-4.2c0-2-0.4-4-1-5.9c-1.1-3.1-2.7-6-4.7-8.6c-2.1-2.9-4.5-5.8-7.6-7.6c-1.1-0.6-2.1-1.1-3.2-1.5l-5.7-2.3
	c-0.3-0.2-0.7-0.3-1-0.3c-1.5,0-1.8,2.4-1,3.6c1.7,2.6,5.7,3.3,6.8,6.2c-1.9,0.1-3.6,1.3-4.1,3.2c0,0.5-0.2,0.9-0.5,1.3
	c-0.5,0.4-1.3,0.2-1.9,0.5c-1,0.5-0.6,2.1-0.7,3.2c-0.2,1-0.6,2-1,2.9C754.3,259.5,754.6,261.3,755.7,262.8z"/>
<path class="st9" d="M925.2,681.5c-0.9-1-2.5-0.8-3.8-0.6c-7.1,1.1-14.3,1.7-21.5,1.7c-0.9-4.4,1.7-8.7,2.5-13.1
	c0.1-1.1,0.4-2.2,0.8-3.3c1-1.9,3.3-2.8,5.4-3.3c3.9-0.8,9.9-2.2,12.1,1.7C923.4,669.3,924.2,676.3,925.2,681.5z"/>
<path class="st10" d="M846.6,664.9c2.9,2,6.5,2.6,10,3.1s7.1,0.8,10.3,2.3c2.7,1.3,5,3.6,8,4.5c2.7,0.7,5.5,0.8,8.2,0.1
	c3.3-0.6,6.7-1.8,8.5-4.6c1.6-2.5,1.4-5.7,1.2-8.6c-0.2-3.3-0.5-6.7-0.7-10c0-0.8-0.2-1.7-0.6-2.4c-2.3-3.4-8.1,1.4-11.2,1.4
	c-4.9,0-10.1-2.6-13.6-5.9c-0.3-0.3-0.7-0.6-1.1-0.8c-1.4-0.6-2.8,0.5-4,1.5l-0.4,0.3c-2.8,2.2-6.7,2.7-10.2,3.6s-7.3,2.7-8.3,6.2
	c-0.1,0.2-0.1,0.4-0.2,0.7C841.9,659.6,843.9,663,846.6,664.9z"/>
<path class="st11" d="M846.6,664.9c2.9,2,6.5,2.6,10,3.1s7.1,0.8,10.3,2.3c2.7,1.3,5,3.6,8,4.5c2.7,0.7,5.5,0.8,8.2,0.1
	c3.3-0.6,6.7-1.8,8.5-4.6c1.6-2.5,1.4-5.7,1.2-8.6c-0.2-3.3-0.5-6.7-0.7-10c0-0.8-0.2-1.7-0.6-2.4c-2.3-3.4-8.1,1.4-11.2,1.4
	c-4.9,0-10.1-2.6-13.6-5.9c-0.3-0.3-0.7-0.6-1.1-0.8c-1.4-0.6-2.8,0.5-4,1.5l-0.4,0.3c-2.8,2.2-6.7,2.7-10.2,3.6s-7.3,2.7-8.3,6.2
	c-0.1,0.2-0.1,0.4-0.2,0.7C841.9,659.6,843.9,663,846.6,664.9z"/>
<path class="st12" d="M846.6,666c2.9,2,6.5,2.6,10,3.1s7.1,0.8,10.3,2.3c2.7,1.3,5,3.6,8,4.5c2.7,0.7,5.5,0.8,8.2,0.1
	c3.5-0.7,6.5-2.8,8.5-5.7c1.6-2.5,1.4-5.7,1.2-8.6c-0.2-3.3-0.5-6.7-0.7-10c0-0.8-0.2-1.7-0.6-2.4c-2.3-3.4-8.1,1.4-11.2,1.4
	c-4.9,0-10.1-2.6-13.6-5.9c-0.3-0.3-0.7-0.6-1.1-0.8c-1.4-0.6-2.8,0.5-4,1.5c0.8,2.5,2,4.8,3.4,7c2.4,3.7,6.3,6.2,10.7,6.7
	c2.2,0.2,4.4-0.3,6.5,0.3s4,2.7,3.3,4.8s-3.3,2.4-5.4,2.5c-3,0.2-6,0.3-8.8-0.6c-1.7-0.6-3.3-1.5-5-2.2c-7.1-3-16.1-1.3-22-6.3
	c-0.6-0.5-1.2-1-1.8-1.4C841,659.7,843.9,664.1,846.6,666z"/>
<path class="st11" d="M846.6,666c2.9,2,6.5,2.6,10,3.1s7.1,0.8,10.3,2.3c2.7,1.3,5,3.6,8,4.5c2.7,0.7,5.5,0.8,8.2,0.1
	c3.5-0.7,6.5-2.8,8.5-5.7c1.6-2.5,1.4-5.7,1.2-8.6c-0.2-3.3-0.5-6.7-0.7-10c0-0.8-0.2-1.7-0.6-2.4c-2.3-3.4-8.1,1.4-11.2,1.4
	c-4.9,0-10.1-2.6-13.6-5.9c-0.3-0.3-0.7-0.6-1.1-0.8c-1.4-0.6-2.8,0.5-4,1.5c0.8,2.5,2,4.8,3.4,7c2.4,3.7,6.3,6.2,10.7,6.7
	c2.2,0.2,4.4-0.3,6.5,0.3s4,2.7,3.3,4.8s-3.3,2.4-5.4,2.5c-3,0.2-6,0.3-8.8-0.6c-1.7-0.6-3.3-1.5-5-2.2c-7.1-3-16.1-1.3-22-6.3
	c-0.6-0.5-1.2-1-1.8-1.4C841,659.7,843.9,664.1,846.6,666z"/>
<path class="st13" d="M923.8,448.1c2.3,11.1,0.1,22.7-6,32.3c-1.7,2.6-3.6,5-4.9,7.8c-0.8,2-1.5,4.1-1.9,6.2l-5.4,22.4
	c-1.5,6-2.9,12.2-2.5,18.4c0.3,4.3,1.4,9.2-1.3,12.6c-0.6,0.6-1.2,1.4-1.6,2.2c-0.3,1-0.3,2,0,2.9c2.7,16.2,4.8,33.2-0.2,48.9
	c-4.5,14.2-4.7,30-8.5,44.5c-0.5,1.8-1,3.7-2.4,4.9c-1,0.9-2.2,1.4-3.5,1.7c-5.6,1.3-11.5-0.2-16.8-2.7c-3.7-1.7-7.6-4.7-7.3-8.7
	c0.2-1.9,1.3-3.6,2-5.4c1.5-3.5,1.6-7.3,2-11.1c1-9.4,3.9-18.5,6.1-27.8s3.7-18.9,1.8-28.2c-3.8-19.3-9.9-38-18.2-55.8
	c-0.4-0.9-0.9-1.8-1.7-2.5c-0.8-0.5-1.6-1-2.3-1.6c-0.6-0.9-0.9-1.9-1.1-2.9c-0.8-2.9-3.2-5.1-4.9-7.7c-4.1-6.5-2.8-14.9-2.7-22.6
	c0.2-7.5-0.9-15.1,0.3-22.5s5.5-15,12.6-17.3c3.5-1.2,7.4-0.9,11.1-0.5C886.4,437.5,905.5,441.1,923.8,448.1z"/>
<path class="st11" d="M923.8,448.1c2.3,11.1,0.1,22.7-6,32.3c-1.7,2.6-3.6,5-4.9,7.8c-0.8,2-1.5,4.1-1.9,6.2l-5.4,22.4
	c-1.5,6-2.9,12.2-2.5,18.4c0.3,4.3,1.4,9.2-1.3,12.6c-0.6,0.6-1.2,1.4-1.6,2.2c-0.3,1-0.3,2,0,2.9c2.7,16.2,4.8,33.2-0.2,48.9
	c-4.5,14.2-4.7,30-8.5,44.5c-0.5,1.8-1,3.7-2.4,4.9c-1,0.9-2.2,1.4-3.5,1.7c-5.6,1.3-11.5-0.2-16.8-2.7c-3.7-1.7-7.6-4.7-7.3-8.7
	c0.2-1.9,1.3-3.6,2-5.4c1.5-3.5,1.6-7.3,2-11.1c1-9.4,3.9-18.5,6.1-27.8s3.7-18.9,1.8-28.2c-3.8-19.3-9.9-38-18.2-55.8
	c-0.4-0.9-0.9-1.8-1.7-2.5c-0.8-0.5-1.6-1-2.3-1.6c-0.6-0.9-0.9-1.9-1.1-2.9c-0.8-2.9-3.2-5.1-4.9-7.7c-4.1-6.5-2.8-14.9-2.7-22.6
	c0.2-7.5-0.9-15.1,0.3-22.5s5.5-15,12.6-17.3c3.5-1.2,7.4-0.9,11.1-0.5C886.4,437.5,905.5,441.1,923.8,448.1z"/>
<path class="st13" d="M844,495.2c0.1,2.9,0.4,5.8,1,8.7c3.5,19.4,7.1,38.7,11,58c0.3,1.7,0.7,3.3,1.1,5c1.5,5.4,4,10.4,7.5,14.7
	c16.3,20.3,17.7,49.8,26.5,74.3c0.6,1.7,1.2,3.3,1.8,5c1.6,4.2,3.4,8.2,5.5,12.2c0.2,0.6,0.6,1.1,1.1,1.5c0.5,0.3,1.2,0.4,1.8,0.3
	c8,0,15.8-1.7,23-5.2c1-0.4,1.9-1.1,2.4-2c0.3-0.7,0.4-1.6,0.3-2.3c-0.2-4.8-0.5-9.9-2.9-14.2c-1.5-2.6-3.4-4.9-5.7-6.9
	c-0.7-15.2-2.2-30.5-5.5-45.4c-1.7-7.6-3.8-15.3-8.3-21.7c-3.3-4.8-7.9-9.4-7.4-15.2c0.3-2.5,1.3-5.7-0.7-7.1
	c-0.9-0.7-2.2-0.7-2.8-1.7c-0.2-0.4-0.4-0.9-0.4-1.4c-0.4-3.9-0.2-7.9,0.7-11.8c0.7-2.5,1.3-5.1,1.8-7.7c0.3-2.6-0.2-5.5-1.9-7.4
	c-0.1-5.2,0-10.7-0.1-15.9c-0.2-3,0-6,0.7-8.9c0.4-1.4,1-2.7,1.3-4.1c1.1-5-1.6-11,1.6-15c1.3-1.7,3.4-2.5,5.2-3.7
	c3.5-2.4,5.9-6.2,7.2-10.3c1.1-4.1,1.8-8.3,2-12.6c0.1-0.9,0.1-1.8,0-2.7c-0.1-0.5-0.2-0.9-0.4-1.4c-1-2.3-3.7-3.2-6.1-3.7
	c-15.4-3.7-31.1-5.5-46.9-5.5c-5.8-4-9.1-2.6-11.6,1.7c-1.4,2.6-2.5,5.3-3.3,8.1c-1.1,3.4-1.2,22.5-2.3,26
	C839.9,481.4,844,490.5,844,495.2z"/>
<path class="st10" d="M949.6,321.1c0.4,3-1,6-1.2,9c-0.1,2.7,0.7,5.2,1.2,7.9c1.9,10.2-1.7,20.5-5.4,30.2c-0.7,1.6-1.1,3.3-1.3,5
	c-0.1,3.2,1.7,6.1,2.2,9.2c1,6.6-3.8,12.8-3.9,19.4c0,3.1,0.9,6.2,0.2,9.1c-0.5,2-1.7,3.7-2.6,5.5c-1.5,3.3-2,7-3.5,10.3
	c-2.7,6-8.4,9.9-13.9,13.5c-3.1-1-6.5-2.3-8.2-5.1c-0.8-1.4-1.2-2.9-1.4-4.5c-1.2-6.8-1.2-13.8-1.1-20.7c-0.1-5.9,0.2-11.9,0.9-17.8
	c1.1-7.5,3.5-14.7,5.3-22.1c2.2-9.3,3.3-18.9,6.8-27.9c3-7.8,7.7-14.9,12.7-21.6c1.9-2.6,3.4-6.2,7-5.7
	C946.5,315.5,949,317.9,949.6,321.1z"/>
<path class="st11" d="M949.6,321.1c0.4,3-1,6-1.2,9c-0.1,2.7,0.7,5.2,1.2,7.9c1.9,10.2-1.7,20.5-5.4,30.2c-0.7,1.6-1.1,3.3-1.3,5
	c-0.1,3.2,1.7,6.1,2.2,9.2c1,6.6-3.8,12.8-3.9,19.4c0,3.1,0.9,6.2,0.2,9.1c-0.5,2-1.7,3.7-2.6,5.5c-1.5,3.3-2,7-3.5,10.3
	c-2.7,6-8.4,9.9-13.9,13.5c-3.1-1-6.5-2.3-8.2-5.1c-0.8-1.4-1.2-2.9-1.4-4.5c-1.2-6.8-1.2-13.8-1.1-20.7c-0.1-5.9,0.2-11.9,0.9-17.8
	c1.1-7.5,3.5-14.7,5.3-22.1c2.2-9.3,3.3-18.9,6.8-27.9c3-7.8,7.7-14.9,12.7-21.6c1.9-2.6,3.4-6.2,7-5.7
	C946.5,315.5,949,317.9,949.6,321.1z"/>
<path class="st5" d="M870.1,255.5c2.4,3.9,4.4,8,6,12.3c2.2,0.5,4.5,0.8,6.8,0.8c8.9,0,15.1-5,20.3-11.4c0.5-2,3.3-4,2.9-5.6
	c-0.4-2.1-2.4-1.7-4.2-1.6c-5.5,0.4-11,1.1-16.4,2.1C884.1,252.4,870.3,255.9,870.1,255.5z"/>
<circle class="st8" cx="882.8" cy="239.4" r="28.4"/>
<path class="st5" d="M846.9,442.9c4.9-0.3,9.9-0.1,14.8,0.1c3.1,0,6.2,0.4,9.2,0.9c3.7,0.8,7.2,2.5,10.9,3.6
	c5.9,1.7,12.1,1.8,18.2,2.4c4,0.4,8,1,11.9,1.9c-0.1-0.5-0.2-0.9-0.4-1.4c-1-2.3-3.7-3.2-6.1-3.7c-15.4-3.7-31.1-5.5-46.9-5.5
	C852.7,437.2,849.4,438.7,846.9,442.9z"/>
<path class="st10" d="M866.3,285.9c1.2,1.4,2.9,3,4.7,2.5c0.7-0.2,1.3-0.6,1.8-1c3.3-2.1,7.3-2.6,11.1-3.2c7.8-1.2,15.5-2.9,23-5.2
	c2.2-0.8,4.5-1.3,6.8-1.4c4.8,0,9.1,3.2,12.1,7s5.1,8.2,8.1,12c2.1,2.7,4.6,5.1,6.6,7.9c5,7.1,6,16.3,4.8,24.9s-4.7,16.6-8.1,24.6
	c-1.8,4.6-4,9.1-6.6,13.3c1.1,6.5,0.5,13.9-2.5,19.8c-1,1.9-2.2,3.8-2.6,5.9c-0.1,1.4-0.1,2.9,0.2,4.3l1.5,10.3
	c0.4,3.1,0.9,6.3,1.5,9.4c1,5.7,2.5,11.9-0.2,17c-3.2,6.2,0.2,14.1-0.7,21c-8.9-3.4-18.2-5.7-27.7-6.6c-6.1-0.6-12.3-0.7-18.2-2.4
	c-3.7-1.1-7.2-2.8-10.9-3.6c-3-0.6-6.1-0.9-9.2-0.9c-6.8-0.3-13.7-0.5-20.4,0.5c-0.5,0.1-1.2,0.1-1.5-0.3c-0.1-0.2-0.2-0.5-0.2-0.8
	c-0.1-2.5,0.5-5,1.8-7.2c0.8-1.5,2-3,2-4.7c-0.1-0.8-0.3-1.6-0.6-2.4l-3-8c-2.5-6.7-1.3-14.5-2.6-21.6c-1-5.5-1.7-11.1-2-16.7
	c-0.2-4.8-0.1-10,2.8-13.8c0.8-0.9,1.6-1.9,2.2-3c0.4-1.2,0.6-2.4,0.5-3.6c0.1-9.6-0.2-19.2-0.8-28.7c2.5-4.5,5.2-9.2,7.7-13.7
	c2.9-5.3,5.9-10.6,7.1-16.5c0.8-3.9,0.8-8,1.3-11.9c0.1-1,0.4-2,1-2.8c1-1.1,2.6-1.2,4-1.2C862.7,285,864.5,285.3,866.3,285.9z"/>
<path class="st5" d="M762.3,268.9c1.8,1.4,3.9,2.2,6.2,2.5c2.9,0.2,9.1-1.5,11-4c0.8-1.3,1.1-2.7,1-4.2c-0.4-0.1-0.8-0.2-1.2-0.2
	c-3.2-0.4-6.4-0.2-9.5,0.4C766.7,264.1,763.7,266,762.3,268.9C762.3,268.9,762.3,268.9,762.3,268.9z"/>
<path class="st10" d="M856.8,330.3c-1.7,2.2-3.5,4.4-6,5.6c-2.8,1.5-6.1,1.5-9.3,1.4c-13.1-0.3-26.2-1.7-39-4.3
	c-1.5-0.3-2.9-0.6-4.3-1.1c-1.5-0.7-3-1.6-4.3-2.7c-4.2-3-8.5-6.1-11.7-10.2c-3.8-4.9-6.2-10.8-7-17c-3-2.8-4.7-6.8-6.2-10.7
	c-0.8-1.6-1.2-3.4-1.4-5.2c-0.1-1.8,1.1-3.8,0.8-5.6c-0.6-3.1-2.2-6-4.5-8.1c-0.5-0.4-0.9-0.9-1.1-1.4c-0.1-0.5,0-1,0.3-1.4
	c1.3-2.9,4.3-4.8,7.4-5.6c3.1-0.6,6.4-0.7,9.5-0.4c1.1,0.2,2.1,0.5,3.1,0.8l2.2,5.9c0.3,1,0.8,1.9,1.5,2.7c0.5,0.4,1,0.9,1.6,1.2
	c2.3,1.9,3.5,4.9,3.1,7.9c4.2,1.6,6.4,6.2,5,10.5c3.4,0.7,6.2,3.2,7.3,6.4c0.2,0.7,0.5,1.4,1,2c0.7,0.6,1.6,0.8,2.6,0.8
	c2.5,0.1,4.7,2.1,7,1.1c2.6-1.2,5.5-1.6,8.3-1.2c0.6,0.1,1.2,0.2,1.8,0.1c0.5-0.1,1-0.3,1.5-0.5c1-0.6,2.1-1,3.3-1.3
	c1.2-0.2,2.4,0.2,3.1,1.2c0.8-0.9,1.3-2,2-2.9c0.7-1,1.8-1.6,3-1.5c-0.8-0.7,0-2,1-2.3c1-0.1,2,0,3,0.1c2.6,0,4.6-2.4,7.2-3
	c2.3-0.6,5.5,0.1,6.7-2c0.4-0.7,0.5-1.7,1.2-2.2c0.5-0.2,1.1-0.3,1.6-0.2c1.7,0.2,3.3,0.7,4.8,1.5c2.5,9.6,1.2,19.6-0.7,29.4
	C861.3,322.6,859.6,326.7,856.8,330.3z"/>
<path class="st5" d="M856.9,364.7l12.2,24.7c-1.3-2.3-4.1-3.2-6.3-4.6c-2.8-2-4.9-4.8-6-8.1c-1.1-3.2-1.9-6.6-2.3-10
	c-0.2-1.6-0.8-3.8,0-5.2C855.8,361.8,856.3,363.6,856.9,364.7z"/>
<path class="st5" d="M892.1,385.7c2.8,2.7,6.1,4.7,9.2,7.2c7.1,5.7,12.2,13.4,17.1,21c1.4,2,2.6,4.1,3.5,6.4c-0.6,0.5-1.5,0-2-0.5
	l-9.6-8.4c-1.2-1-2.3-2-3.2-3.2c-1.7-2.2-2.4-5-3.9-7.4c-1.6-2.3-3.6-4.3-5.8-6c-2.2-1.9-12.3-10.5-9.9-13.8
	C889.1,381.8,890.6,384.2,892.1,385.7z"/>
<path class="st10" d="M871.1,278.8c3-1.9,6.6-2.7,10.2-3.4c2.1-0.5,4.3-0.6,6.5-0.5c2,0.2,3.9,1,5.9,1.1c2.8,0.2,5.5-1,8.3-1.7
	s5.9-1,8.2,0.6c0.5,0.5,1.1,0.8,1.8,1c0.7-0.1,1.3-0.4,1.8-0.9c4-2.8,9.4-2.5,13,0.7c5.2,4.9,4.6,14.4,10.7,18.1
	c1.7,1,3.8,1.6,4.8,3.3c0.2,0.5,0.5,1.1,0.8,1.6c0.4,0.4,0.9,0.8,1.5,1c1.8,0.8,3.4,1.8,5,2.9c1.6,1.2,2.6,2.9,2.9,4.9
	c0,1.4-0.3,2.8-0.9,4.1c-6.1,15-21,24.5-37.2,23.8c-1.4,0.1-2.8-0.4-3.9-1.2c-0.6-0.7-1.1-1.4-1.4-2.2c-2.9-6-8.2-10.5-11.7-16.2
	c-2-3.4-3.3-7.2-5.5-10.6c-3.2-5.1-8.1-8.9-12.9-12.5c-2.7-2.1-5.7-4.2-9.1-4.1c-3,0.1-5.2,0.3-4.1-3.4
	C866.7,282.4,868.6,280.2,871.1,278.8z"/>
<path class="st11" d="M871.1,278.8c3-1.9,6.6-2.7,10.2-3.4c2.1-0.5,4.3-0.6,6.5-0.5c2,0.2,3.9,1,5.9,1.1c2.8,0.2,5.5-1,8.3-1.7
	s5.9-1,8.2,0.6c0.5,0.5,1.1,0.8,1.8,1c0.7-0.1,1.3-0.4,1.8-0.9c4-2.8,9.4-2.5,13,0.7c5.2,4.9,4.6,14.4,10.7,18.1
	c1.7,1,3.8,1.6,4.8,3.3c0.2,0.5,0.5,1.1,0.8,1.6c0.4,0.4,0.9,0.8,1.5,1c1.8,0.8,3.4,1.8,5,2.9c1.6,1.2,2.6,2.9,2.9,4.9
	c0,1.4-0.3,2.8-0.9,4.1c-6.1,15-21,24.5-37.2,23.8c-1.4,0.1-2.8-0.4-3.9-1.2c-0.6-0.7-1.1-1.4-1.4-2.2c-2.9-6-8.2-10.5-11.7-16.2
	c-2-3.4-3.3-7.2-5.5-10.6c-3.2-5.1-8.1-8.9-12.9-12.5c-2.7-2.1-5.7-4.2-9.1-4.1c-3,0.1-5.2,0.3-4.1-3.4
	C866.7,282.4,868.6,280.2,871.1,278.8z"/>
<path class="st10" d="M856.3,690.4c2.1,1.9,4.9,2.8,7.6,3.4c6.3,1.2,12.6,2,19,2.3l6.2,0.5c6,0.5,12.1,0.9,18.2,1
	c7.5,0,15-0.6,22.4-1.9c0.7,0,1.3-0.3,1.8-0.9c0.2-0.4,0.3-0.9,0.3-1.4c-0.1-7.6-1.1-15.1-2.8-22.4c-0.7-3-6.1,3.8-6.4,4
	c-1.5,1.7-2.6,2.5-4.9,2.6c-6.2,0.3-13.2-3.5-18.2-6.8c-1.1-0.8-2.2-1.5-3.4-2.1c-0.9-0.4-1.8-0.6-2.7-0.8c-3.2-0.3-6.4,0.4-9.3,1.9
	c-3.7,1.8-7,4.5-10.7,6.4c-3,1.5-6.2,2.5-9.6,3c-3.4,0.5-7.4,0.7-9.2,3.6l0,0C853.2,685.2,854.2,688.5,856.3,690.4z"/>
<path class="st12" d="M856.3,691.5c2.1,1.9,4.9,2.8,7.6,3.3c6.3,1.2,12.6,2,19,2.3l6.2,0.5c6,0.5,12.1,0.9,18.2,1
	c7.5,0,15-0.6,22.4-1.9c0.7,0,1.3-0.3,1.8-0.9c0.6-0.8,1.1-1.6,1.4-2.5c-0.1-7.6-2.2-15.1-3.9-22.5c-0.7-3-6.1,3.8-6.4,4
	c-1.5,1.7-2.6,2.5-4.9,2.6c-6.2,0.3-13.2-3.5-18.2-6.8c-1.1-0.8-2.2-1.5-3.4-2.1c-0.9-0.4-1.8-0.6-2.7-0.8
	c0.8,4.5,7.2,9.9,10.6,11.6c6.7,3.3,14.7,1.7,22.2,2.1c0.5,0,1.1,0.1,1.6,0.4c0.9,0.6,1,1.9,0.9,3c-0.1,1.8-0.3,3.9-1.8,4.8
	c-0.8,0.4-1.6,0.5-2.5,0.5c-18.5,0.8-37,0.1-55.5-2c-3.1-0.2-6.1-0.9-9-2c-1.9-0.9-3.6-2-5.2-3.4
	C852.3,684.6,854.2,689.6,856.3,691.5z"/>
<path class="st10" d="M871.8,239.1c0.1,2.9-1.9,8.6,3.6,7c3.3-1,4.2-4.8,8.3-4s5.1,6,6.5,9.3c2.3,5.4,7.2,9.3,12.9,10.5
	c1.2,0.3,2.4,0.3,3.6,0c2.7-0.8,4.2-3.5,5.3-6.1c1-2.2,1.7-4.4,2.3-6.7c0.4-1.6,0.7-3.3,0.8-4.9l0,0c0.1-1.1,0.1-2.3,0-3.4
	c-0.5-6.7-4.3-12.8-9.2-17.4s-10.8-7.9-16.6-11.2c-1.9-1.2-4-2.1-6.1-2.7c-2.1-0.4-4.3-0.5-6.5-0.3c-2.8,0.1-5.6,0.8-8.2,1.9
	c-1.1,0.5-2,1.2-2.9,2c-1.2,1.1-2.1,2.6-2.5,4.2c-1,4.3,1.7,8.2,3.9,11.6C869.2,232.1,871.6,235.3,871.8,239.1z"/>
<path class="st5" d="M779.3,302.1c1.2-3,6.1-11.1,4.7-14c-1.5,2.1-2.7,4.4-3.8,6.7C779.3,297.2,780.1,300.2,779.3,302.1z"/>
<path class="st5" d="M867,229.1c-2.2-3.4-5-7.3-3.9-11.6c0.5-1.9,1.6-3.6,3.2-4.8c-0.4,0.6-0.6,1.3-0.8,2c-1.1,4.3,1.7,8.2,3.9,11.6
	c2,3,4.5,6.2,4.6,10c0.1,2.9-1.9,8.6,3.6,7c3.3-1,4.2-4.8,8.3-4s5.1,6,6.5,9.3c2.3,5.4,7.2,9.3,12.9,10.5c1.2,0.3,2.4,0.3,3.6,0
	c0.6-0.2,1.2-0.4,1.7-0.8c-0.8,1.7-2.3,3-4.1,3.6c-1.2,0.3-2.4,0.3-3.6,0c-5.8-1.1-10.6-5.1-13-10.5c-1.4-3.4-2.3-8.5-6.5-9.3
	s-5.1,3-8.3,4c-5.5,1.6-3.5-4.1-3.6-7C871.5,235.3,869,232.1,867,229.1z"/>
<path class="st5" d="M865.8,223.2c0.5,0.8,1.1,1.6,1.7,2.4c1.2,1.5,2.5,2.8,3.9,4c0.8,0.7,1.7,1.4,2.6,2.1c1.7,1.2,3.5,2.2,5.3,3.2
	c5.4,2.7,11.2,4.4,17,6.1l11.3,3.3c1.4,1,3.9,3,6.8,4.9c0.4-1.6,0.7-3.3,0.8-4.9l0,0c0.1-1.1,0.1-2.3,0-3.4
	c-0.5-6.7-4.3-12.8-9.2-17.4s-10.8-7.9-16.6-11.2c-1.9-1.2-4-2.1-6.1-2.7c-2.1-0.4-4.3-0.5-6.5-0.3c-2.8,0.1-5.6,0.8-8.2,1.9
	c-1.1,0.5-2,1.2-2.9,2c-0.6,0.9-1.1,2-1.5,3.1C863.6,218.7,864.5,221.2,865.8,223.2z"/>
<path class="st6" d="M865.8,222.5c0.5,0.8,1.1,1.6,1.7,2.4c1.2,1.5,2.5,2.8,3.9,4c0.8,0.7,1.7,1.4,2.6,2.1c1.7,1.2,3.5,2.2,5.3,3.2
	c5.4,2.7,11.2,4.4,17,6.1l11.3,3.3c4,3,17.2,12.8,19.4,11.6c2.6-1.4-11.8-11.6-11.8-11.6l-0.7,0.5c2.1-1.3,3.2-4.4,3.7-7
	c0.8-4.8,1.2-9.7,0.1-14.4s-4-9.1-8.2-11.4c-1.9-1-4.2-1.6-5.6-3.1c-0.2-0.2-0.4-0.5-0.5-0.7c-0.1-0.1-0.2-0.3-0.2-0.4
	c-0.1-0.4-0.4-0.8-0.6-1.2c-0.8-0.9-2.2-0.6-3.4-0.5c-0.1,0-0.2,0-0.4,0c-0.2,0-0.4,0-0.7,0c-4.3,0.1-8.4-2.3-12.7-2.3
	c-4.7,0-8.8,2.7-12.9,4.6c-0.8,0.4-1.6,0.7-2.4,1.1c-3,1.4-5.3,2.9-6.5,6.9C863.6,217.9,864.5,220.4,865.8,222.5z"/>
<path class="st5" d="M898.8,205.3c-0.2,0.3-0.3,0.7-0.3,1c0,0.6,0.3,1.1,0.7,1.5c0.5,0.4,1.1,0.6,1.8,0.6c0.5,0.1,0.9,0.1,1.4,0.1
	c0.6,0.1,1.3-0.1,1.8-0.3c0.1-0.1,0.2-0.1,0.3-0.2c-0.2-0.2-0.4-0.5-0.5-0.7c-0.1,0.1-0.2,0.1-0.6,0c-0.8,0-1.6-0.2-2.3-0.4
	c-0.3-0.1-0.6-0.2-0.9-0.4c-0.4-0.3-0.7-0.8-0.8-1.2L898.8,205.3z"/>
<path class="st5" d="M915,243.4c-0.6,0.4-1.3,0.6-2,0.7c-0.5,0.1-1,0.2-1.5,0.2c-1.3,0-2.6-0.4-3.7-1"/>
<path class="st6" d="M396,257.3l-47.7,25.8c-0.5,0.3-0.7,0.9-0.4,1.4c0.1,0.2,0.3,0.3,0.5,0.4l8.1,3.1c0.5,0.2,0.9,0.5,1.1,1l6.3,13
	c0.1,0.6,1.2,0.7,1.2,0.1l-1-10.8c0.1-0.8,0.4-1.6,0.9-2.2l24.7-24.2c0.1-0.1,0.3-0.2,0.5-0.2c0.3,0.1,0.5,0.4,0.4,0.7
	c0,0.1-0.1,0.2-0.1,0.2l-21.3,26.1c-0.5,0.6-0.7,1.4-0.8,2.1l-1.3,9.3c0.1,0.8,0.7,1.1,1.2,0.4l4.6-5.4c0.3-0.4,0.9-0.5,1.3-0.2
	l11.9,8.6c0.5,0.3,1.1,0.2,1.4-0.3c0.1-0.1,0.1-0.2,0.1-0.3l9.7-47.7c0.1-0.5-0.3-1.1-0.8-1.2C396.4,257.2,396.2,257.2,396,257.3
	L396,257.3z"/>
<ellipse class="st6" cx="1061.1" cy="692.8" rx="59.5" ry="11.4"/>
<ellipse class="st10" cx="1060.1" cy="688" rx="6.9" ry="9.1"/>
<ellipse class="st10" cx="1060.1" cy="676.9" rx="6.9" ry="9.1"/>
<ellipse class="st10" cx="1060.1" cy="665.8" rx="6.9" ry="9.1"/>
<ellipse class="st10" cx="1060.1" cy="654.8" rx="6.9" ry="9.1"/>
<ellipse class="st10" cx="1060.1" cy="643.7" rx="6.9" ry="9.1"/>
<ellipse class="st10" cx="1060.1" cy="632.6" rx="6.9" ry="9.1"/>
<ellipse class="st10" cx="1060.1" cy="621.5" rx="6.9" ry="9.1"/>
<path class="st6" d="M1086,545.7c0.9-1.2,1.8-2.5,2.6-3.8l-18.2-3l19.7,0.2c3.8-8.3,4-17.8,0.6-26.3l-26.4,13.7l24.3-17.9
	c-9.2-15.9-29.4-21.3-45.3-12.2c-15.9,9.2-21.3,29.4-12.2,45.3c0.8,1.4,1.7,2.7,2.7,4c-1.5,1.9-2.7,3.9-3.8,6l23.6,12.3l-25.2-8.5
	c-3.6,10.6-1.6,22.3,5.3,31.1c-11.3,14.4-8.8,35.2,5.6,46.6c14.4,11.3,35.2,8.8,46.6-5.6c9.5-12,9.5-29,0-41
	C1095.4,574.6,1095.4,557.7,1086,545.7L1086,545.7z"/>
<path class="st5" d="M1026.8,566.2c0,7.4,2.5,14.7,7.1,20.5c-11.3,14.4-8.8,35.2,5.6,46.6c14.4,11.3,35.2,8.8,46.6-5.6
	c9.5-12,9.5-29,0-41C1090.4,581.1,1026.8,562.5,1026.8,566.2z"/>
<ellipse class="st6" cx="502" cy="662.2" rx="34" ry="6.5"/>
<ellipse class="st10" cx="502.6" cy="659.4" rx="4" ry="5.2"/>
<ellipse class="st10" cx="502.6" cy="653.1" rx="4" ry="5.2"/>
<ellipse class="st10" cx="502.6" cy="646.8" rx="4" ry="5.2"/>
<ellipse class="st10" cx="502.6" cy="640.5" rx="4" ry="5.2"/>
<ellipse class="st10" cx="502.6" cy="634.1" rx="4" ry="5.2"/>
<ellipse class="st10" cx="502.6" cy="627.8" rx="4" ry="5.2"/>
<ellipse class="st10" cx="502.6" cy="621.5" rx="4" ry="5.2"/>
<path class="st6" d="M487.8,578.2c-0.5-0.7-1-1.4-1.5-2.2l10.4-1.7l-11.2,0.1c-2.2-4.7-2.3-10.2-0.4-15l15.1,7.8L486.3,557
	c5.2-9.1,16.8-12.2,25.9-7c9.1,5.2,12.2,16.8,7,25.9c-0.5,0.8-1,1.6-1.6,2.4c0.8,1.1,1.6,2.2,2.2,3.5l-13.5,7l14.4-4.8
	c0.7,2,1,4,1,6.1c0,4.2-1.4,8.4-4.1,11.7c6.5,8.2,5,20.1-3.2,26.6c-8.2,6.5-20.1,5-26.6-3.2c-5.4-6.9-5.4-16.5,0-23.4
	C482.4,594.8,482.4,585.1,487.8,578.2L487.8,578.2z"/>
<path class="st5" d="M521.6,589.9c0,4.2-1.4,8.4-4.1,11.7c6.5,8.2,5,20.1-3.2,26.6c-8.2,6.5-20.1,5-26.6-3.2
	c-5.4-6.9-5.4-16.5,0-23.4C485.3,598.4,521.6,587.8,521.6,589.9z"/>
<ellipse class="st6" cx="249.2" cy="609.7" rx="22.8" ry="4.4"/>
<ellipse class="st10" cx="249.6" cy="607.8" rx="2.7" ry="3.5"/>
<ellipse class="st10" cx="249.6" cy="603.6" rx="2.7" ry="3.5"/>
<ellipse class="st10" cx="249.6" cy="599.3" rx="2.7" ry="3.5"/>
<ellipse class="st10" cx="249.6" cy="595.1" rx="2.7" ry="3.5"/>
<ellipse class="st10" cx="249.6" cy="590.8" rx="2.7" ry="3.5"/>
<ellipse class="st10" cx="249.6" cy="586.6" rx="2.7" ry="3.5"/>
<ellipse class="st10" cx="249.6" cy="582.3" rx="2.7" ry="3.5"/>
<path class="st6" d="M239.6,553.2c-0.4-0.5-0.7-0.9-1-1.5l7-1.1h-7.6c-1.5-3.2-1.6-6.8-0.2-10.1l10.1,5.3l-9.4-6.9
	c3.5-6.1,11.2-8.3,17.4-4.8s8.3,11.2,4.8,17.4c-0.3,0.6-0.7,1.2-1.1,1.7c0.6,0.7,1.1,1.5,1.4,2.3l-9,4.7l9.7-3.2
	c0.4,1.3,0.7,2.7,0.7,4.1c0,2.9-1,5.6-2.7,7.9c4.4,5.5,3.4,13.5-2.1,17.9c-5.5,4.4-13.5,3.4-17.9-2.1c-3.7-4.6-3.7-11.2,0-15.8
	C236,564.4,236,557.8,239.6,553.2L239.6,553.2z"/>
<path class="st5" d="M262.3,561.1c0,2.9-1,5.6-2.7,7.9c4.4,5.5,3.4,13.5-2.1,17.9c-5.5,4.4-13.5,3.4-17.9-2.1
	c-3.7-4.6-3.7-11.2,0-15.8C237.9,566.8,262.3,559.7,262.3,561.1z"/>
<polygon class="st3" points="704.8,78.9 704.8,53.4 694.6,53.4 694.6,79 686.2,77.1 699.4,93.9 712.6,77.1 "/>
</svg>
