<?xml version="1.0" encoding="utf-8"?>
<!-- Generator: Adobe Illustrator 19.0.0, SVG Export Plug-In . SVG Version: 6.00 Build 0)  -->
<svg version="1.1" id="adf35c87-b782-4e77-99e1-73b1e980183a"
	 xmlns="http://www.w3.org/2000/svg" xmlns:xlink="http://www.w3.org/1999/xlink" x="0px" y="0px" viewBox="144 -110.5 1130 814.8"
	 style="enable-background:new 144 -110.5 1130 814.8;" xml:space="preserve">
<style type="text/css">
	.st0{fill:#F5F5F5;}
	.st1{fill:#3AD29F;}
	.st2{opacity:0.1;enable-background:new    ;}
	.st3{opacity:0.3;enable-background:new    ;}
	.st4{opacity:0.1;fill:#6C63FF;enable-background:new    ;}
	.st5{opacity:0.1;fill:#FFFFFF;enable-background:new    ;}
	.st6{opacity:0.5;}
	.st7{fill:#47E6B1;}
	.st8{opacity:0.5;fill:#4D8AF0;enable-background:new    ;}
	.st9{opacity:0.5;fill:#F55F44;enable-background:new    ;}
	.st10{opacity:0.5;fill:#47E6B1;enable-background:new    ;}
	.st11{fill:#6C63FF;}
	.st12{fill:#FFB9B9;}
	.st13{fill:#575A89;}
	.st14{fill:#2F2E41;}
</style>
<title>email campaign</title>
<polygon class="st0" points="954.3,98.8 900,82.4 896.7,156.6 953.8,173.8 "/>
<polygon class="st0" points="572.3,-16.7 572.3,58.8 896.7,156.6 900,82.4 "/>
<polygon class="st1" points="954.3,240.9 900,224.5 896.7,298.7 953.8,315.9 "/>
<polygon class="st1" points="572.3,125.4 572.3,200.9 896.7,298.7 900,224.5 "/>
<polygon class="st0" points="954.3,374.1 900,357.7 896.7,431.9 953.8,449.2 "/>
<polygon class="st0" points="572.3,258.7 572.3,334.2 896.7,431.9 900,357.7 "/>
<polygon class="st2" points="954.3,374.1 900,357.7 896.7,431.9 953.8,449.2 "/>
<ellipse class="st3" cx="796.6" cy="227.1" rx="11.1" ry="22.2"/>
<ellipse class="st4" cx="796.6" cy="227.1" rx="93.3" ry="186.5"/>
<ellipse class="st5" cx="796.6" cy="227.1" rx="51.1" ry="102.1"/>
<g class="st6">
	<rect x="429" y="93.6" class="st7" width="1.5" height="8.4"/>
	<rect x="425.5" y="97.1" class="st7" width="8.4" height="1.5"/>
</g>
<g class="st6">
	<rect x="954" y="502.6" class="st7" width="1.5" height="8.4"/>
	<rect x="950.5" y="506.1" class="st7" width="8.4" height="1.5"/>
</g>
<g class="st6">
	<rect x="917.5" y="324.6" class="st7" width="1.5" height="8.4"/>
	<rect x="914" y="328" class="st7" width="8.4" height="1.5"/>
</g>
<g class="st6">
	<rect x="854.3" y="495.3" class="st7" width="1.5" height="8.4"/>
	<rect x="850.9" y="498.8" class="st7" width="8.4" height="1.5"/>
</g>
<g class="st6">
	<rect x="809.9" y="602.4" class="st7" width="1.5" height="8.4"/>
	<rect x="806.5" y="605.8" class="st7" width="8.4" height="1.5"/>
</g>
<g class="st6">
	<rect x="492.1" y="223.4" class="st7" width="1.5" height="8.4"/>
	<rect x="488.7" y="226.8" class="st7" width="8.4" height="1.5"/>
</g>
<path class="st8" d="M515.2,92.8c-0.8-0.4-1.3-1.3-1-2.2c0-0.1,0-0.1,0-0.2l0,0c0-0.5-0.4-0.9-0.9-1c-0.3,0-0.6,0.1-0.8,0.4l0,0
	c0,0.1-0.1,0.1-0.1,0.2c-0.4,0.8-1.3,1.3-2.2,1c-0.1,0-0.1,0-0.2,0l0,0c-0.5,0-0.9,0.4-1,0.9c0,0.3,0.1,0.6,0.4,0.8l0,0
	c0.1,0,0.1,0.1,0.2,0.1c0.8,0.4,1.3,1.3,1,2.2c0,0.1,0,0.1,0,0.2l0,0c0,0.5,0.4,0.9,0.9,1c0.3,0,0.6-0.1,0.8-0.4l0,0
	c0-0.1,0.1-0.1,0.1-0.2c0.4-0.8,1.3-1.3,2.2-1c0.1,0,0.1,0,0.2,0l0,0c0.5,0,0.9-0.4,1-0.9c0-0.3-0.1-0.6-0.4-0.8l0,0
	C515.3,92.8,515.2,92.8,515.2,92.8z"/>
<path class="st8" d="M848.4,18.6c-0.8-0.4-1.3-1.3-1-2.2c0-0.1,0-0.1,0-0.2l0,0c0-0.5-0.4-0.9-0.9-1c-0.3,0-0.6,0.1-0.8,0.4l0,0
	c0,0.1-0.1,0.1-0.1,0.2c-0.4,0.8-1.3,1.3-2.2,1c-0.1,0-0.1,0-0.2,0l0,0c-0.5,0-0.9,0.4-1,0.9c0,0.3,0.1,0.6,0.4,0.8l0,0
	c0.1,0,0.1,0.1,0.2,0.1c0.8,0.4,1.3,1.3,1,2.2c0,0.1,0,0.1,0,0.2l0,0c0,0.5,0.4,0.9,0.9,1c0.3,0,0.6-0.1,0.8-0.4l0,0
	c0-0.1,0.1-0.1,0.1-0.2c0.4-0.8,1.3-1.3,2.2-1c0.1,0,0.1,0,0.2,0l0,0c0.5,0,0.9-0.4,1-0.9c0-0.3-0.1-0.6-0.4-0.8l0,0
	C848.5,18.6,848.4,18.6,848.4,18.6z"/>
<path class="st8" d="M438.8,282.6c-0.8-0.4-1.3-1.3-1-2.2c0-0.1,0-0.1,0-0.2l0,0c0-0.5-0.4-0.9-0.9-1c-0.3,0-0.6,0.1-0.8,0.4l0,0
	c0,0.1-0.1,0.1-0.1,0.2c-0.4,0.8-1.3,1.3-2.2,1c-0.1,0-0.1,0-0.2,0l0,0c-0.5,0-0.9,0.4-1,0.9c0,0.3,0.1,0.6,0.4,0.8l0,0
	c0.1,0,0.1,0.1,0.2,0.1c0.8,0.4,1.3,1.3,1,2.2c0,0.1,0,0.1,0,0.2l0,0c0,0.5,0.4,0.9,0.9,1c0.3,0,0.6-0.1,0.8-0.4l0,0
	c0-0.1,0.1-0.1,0.1-0.2c0.4-0.8,1.3-1.3,2.2-1c0.1,0,0.1,0,0.2,0l0,0c0.5,0,0.9-0.4,1-0.9c0-0.3-0.1-0.6-0.4-0.8l0,0
	C438.9,282.6,438.8,282.6,438.8,282.6z"/>
<path class="st8" d="M452.1,469.1c-0.8-0.4-1.3-1.3-1-2.2c0-0.1,0-0.1,0-0.2l0,0c0-0.5-0.4-0.9-0.9-1c-0.3,0-0.6,0.1-0.8,0.4l0,0
	c0,0.1-0.1,0.1-0.1,0.2c-0.4,0.8-1.3,1.3-2.2,1c-0.1,0-0.1,0-0.2,0l0,0c-0.5,0-0.9,0.4-1,0.9c0,0.3,0.1,0.6,0.4,0.8l0,0
	c0.1,0,0.1,0.1,0.2,0.1c0.8,0.4,1.3,1.3,1,2.2c0,0.1,0,0.1,0,0.2l0,0c0,0.5,0.4,0.9,0.9,1c0.3,0,0.6-0.1,0.8-0.4l0,0
	c0-0.1,0.1-0.1,0.1-0.2c0.4-0.8,1.3-1.3,2.2-1c0.1,0,0.1,0,0.2,0l0,0c0.5,0,0.9-0.4,1-0.9c0-0.3-0.1-0.6-0.4-0.8l0,0
	C452.2,469.2,452.2,469.1,452.1,469.1z"/>
<circle class="st9" cx="674.2" cy="117.8" r="3"/>
<circle class="st8" cx="754.2" cy="504.2" r="3"/>
<circle class="st8" cx="936.2" cy="197.7" r="3"/>
<circle class="st10" cx="989.5" cy="331" r="3"/>
<circle class="st9" cx="791.2" cy="-5.1" r="3"/>
<rect x="641" y="121.8" transform="matrix(0.9992 3.874888e-02 -3.874888e-02 0.9992 5.7623 -25.1655)" class="st11" width="22.2" height="28.6"/>
<path class="st12" d="M741.8,221.4c0,0,30.8-14.7,30.3-2s-31,21.1-31,21.1L741.8,221.4z"/>
<path class="st11" d="M724.9,328.9c0,0,14.5,35.5,19.9,61.2c5.4,25.6,13.5,60.9,3,86s-40.4,98.6-40.7,106.5s2.6,16-3.8,15.8
	s-40.9-11.1-42.3-16s11.8-17,11.8-17l32.6-102.1l-34-66.5L646.9,496l-4.8,123.8c0,0-23.6-7.3-27-1c0,0-10.6-14.7-11.9-21.1
	s5-128.6,5-128.6s-21.6-139.2-4.2-138.5C621.5,331.2,689.9,289.4,724.9,328.9z"/>
<path class="st13" d="M703.6,592c0,0,16.1,35.6,17.6,37.3s12,18,4.1,17.6s-26.7-9-40.5-22.2s-32-36.2-30.3-37.7s12.9-5.9,12.9-5.9
	L703.6,592z"/>
<path class="st13" d="M639.2,611.8c0,0,1,15.9,3.9,22.4s2.6,16-5.4,15.7s-28.5-4.3-28.5-4.3s-1.2-9.6,0.4-11.1s8.7-18.7,5.7-23.6
	C612.4,605.9,639.2,611.8,639.2,611.8z"/>
<path class="st12" d="M627.5,94.6c0,0-16.9,26.4-23.5,32.5c-6.6,6.1,12,19.5,12,19.5l33.2,4.5c0,0-0.4-30.2,1.3-33.3
	S627.5,94.6,627.5,94.6z"/>
<path class="st11" d="M656.3,129.1c0,0-6.8,12.5-13.2,12.2s-39.2-14.2-40.6-19.1s-10.9,34.6-10.9,34.6L672,298.2l19.6-13.5l-9.5-83
	l-7.8-44.8L656.3,129.1z"/>
<path class="st13" d="M599.6,255.7c3.2,6.7,5.2,13.7,4.9,20.9c0,0.3,0,0.6-0.1,1c-0.8,14.7-6.2,31.7-8.1,44
	c-1.4,8.9-1,15.3,4.2,16.9c12.6,3.7-1.8,6.3,46.8,22.5s57.2,2.2,57.3-1s-6.9-27.3-5.2-28.8s23.1,20,29.5,17s0.7-19.1,0.7-19.1
	s-14.6-34-14.3-41.9s-22.1-45.4-22.1-45.4l-15.2-99.2c0,0-5.9-12.9-13.7-14.8s-14.4,2.6-14.4,2.6l13.2,29.1L677,211l-2.3,19
	c0,0-16.2-34-26.8-47.1s-33.3-44.2-33.3-44.2s-5.3-17.8-1.3-23.2c4-5.3-16.6-6.1-25.4,15.8c-4.7,11.6-12.2,28.9-17,45.1
	c-4.2,14.3-6.2,27.6-2,35.3C575.3,223.2,591.4,238.5,599.6,255.7z"/>
<path class="st2" d="M568.9,211.5c6.4,11.7,22.5,27,30.7,44.1c2.1-7.7,4.8-15.7,4.8-15.7s10-53.7-19.6-67.5
	c-4.9-0.5-9.8,0.9-13.8,3.9C566.7,190.6,564.7,203.9,568.9,211.5z"/>
<path class="st13" d="M686.7,208.2l25.2,7.3l34.9,1.4l3.6,30.3l-57.4,4.1C692.9,251.3,678.6,211,686.7,208.2z"/>
<path class="st12" d="M645.6,310.2c0,0,33.7,5.6,26,15.7s-37.5-0.5-37.5-0.5L645.6,310.2z"/>
<path class="st2" d="M604.5,277.5c-0.8,14.7-6.2,31.7-8.1,44c10.7,10.1,20.9,19.1,24.8,19.2c7.9,0.3,20.7-0.8,25.4,1
	s7.5-28.3,7.5-28.3s-2.8-9.6-15.3-14.9C630.2,295,614,285.3,604.5,277.5z"/>
<path class="st13" d="M585.1,162.9c0,0-26.9-4.2-25.4,40.4s-2.8,73,8,81.4s45.9,46.3,53.8,46.6s20.7-0.8,25.4,1s7.5-28.3,7.5-28.3
	s-2.8-9.6-15.3-14.9s-42-23.9-41.8-30.2c0.2-6.4,7.5-28.3,7.5-28.3S614.7,176.8,585.1,162.9z"/>
<circle class="st12" cx="651.2" cy="98.7" r="35"/>
<path class="st14" d="M674.7,48.6c0.8,0.7,1.9,1.2,2.9,1.5c1.1,0.2,2.2-0.5,2.4-1.7c0.8,1.7,1.7,3.4,3.3,4.3s4.2,0.1,4.4-1.7
	c0.2,1.4,0.9,2.7,1.8,3.7c1,1,2.8,1.2,3.7,0.1c-0.7,3.9-0.3,7.9-0.5,11.9s-1.3,8.2-4.3,10.8c-4.4,3.8-10.9,2.9-16.7,2.1
	c-0.9-0.2-1.8-0.1-2.6,0.1c-2.2,0.9-2.1,3.9-2.1,6.3c-0.4,8.5-6.8,15.5-15.2,16.5c-2.3,0.4-4.6-0.2-6.5-1.6
	c-1.6-1.4-2.5-3.6-4.3-4.7c-3-1.7-6.7,0.8-9,3.5s-4.4,6-7.9,6.5c-4.6,0.6-8-4-9.7-8.3c-4.7-12.1-4.4-25.6,1-37.5
	C625,39.7,657.5,36.4,674.7,48.6z"/>
</svg>
