<?xml version="1.0" encoding="utf-8"?>
<!-- Generator: Adobe Illustrator 19.0.0, SVG Export Plug-In . SVG Version: 6.00 Build 0)  -->
<svg version="1.1" id="adf35c87-b782-4e77-99e1-73b1e980183a"
	 xmlns="http://www.w3.org/2000/svg" xmlns:xlink="http://www.w3.org/1999/xlink" x="0px" y="0px" viewBox="144 -110.5 1130 814.8"
	 style="enable-background:new 144 -110.5 1130 814.8;" xml:space="preserve">
<style type="text/css">
	.st0{fill:#3F3D56;}
	.st1{fill:#6C63FF;}
	.st2{fill:#F2F2F2;}
	.st3{fill:#2F2E41;}
	.st4{fill:#FFFFFF;}
</style>
<title>email campaign</title>
<path class="st0" d="M781.8,392.6v231.5h297.8V392.6H781.8z M1040.7,454.5h-23.1v-23.1h23.1V454.5z"/>
<rect x="368.7" y="392.6" class="st0" width="388.1" height="60.5"/>
<rect x="368.7" y="478.1" class="st0" width="388.1" height="60.5"/>
<rect x="368.7" y="563.6" class="st0" width="388.1" height="60.5"/>
<rect x="437.9" y="100.5" class="st0" width="19.2" height="25"/>
<rect x="930.7" y="295.5" class="st0" width="25" height="19.2"/>
<polygon class="st1" points="641.5,478.1 756.8,478.1 756.8,538.6 606.6,538.6 "/>
<polygon class="st1" points="592.1,563.6 756.8,563.6 756.8,624.1 557.2,624.1 "/>
<path class="st0" d="M653.9,253.2c-1.7-1.7-3.3-3.4-4.9-5.1l1.7-1.6c1.6,1.7,3.2,3.4,4.8,5L653.9,253.2z"/>
<path class="st0" d="M639.7,237.2c-2.9-3.8-5.7-7.7-8.3-11.7l2-1.3c2.6,3.9,5.3,7.8,8.2,11.5L639.7,237.2z M624,213.1
	c-2.3-4.2-4.4-8.5-6.3-12.9l2.1-0.9c1.9,4.3,4,8.6,6.2,12.7L624,213.1z M612.5,186.8c-1.5-4.5-2.9-9.1-4.1-13.8l2.3-0.6
	c1.2,4.6,2.5,9.1,4,13.6L612.5,186.8z M607.8,158.6l-2.3,0.4c-0.8-4.7-1.4-9.5-1.8-14.2l2.3-0.2C606.4,149.2,607,154,607.8,158.6
	L607.8,158.6z M605.4,130.4l-2.3,0c0-4.8,0.2-9.6,0.6-14.4l2.3,0.2C605.6,120.9,605.4,125.7,605.4,130.4L605.4,130.4z M607.7,102.2
	l-2.3-0.4c0.8-4.7,1.8-9.4,2.9-14.1l2.3,0.6C609.4,92.9,608.4,97.5,607.7,102.2L607.7,102.2z M920.5,34.6c-2.6-3.9-5.4-7.8-8.4-11.4
	l1.8-1.5c3,3.7,5.8,7.6,8.5,11.6L920.5,34.6z M614.6,74.7l-2.2-0.8c1.5-4.5,3.3-9,5.2-13.4l2.1,0.9
	C617.8,65.8,616.1,70.3,614.6,74.7L614.6,74.7z M902.9,12.4c-3.2-3.4-6.6-6.8-10.1-9.9l1.6-1.7c3.5,3.2,7,6.6,10.3,10.1L902.9,12.4z
	 M625.9,48.7l-2.1-1.1c2.3-4.2,4.7-8.4,7.3-12.4l2,1.3C630.5,40.5,628.1,44.6,625.9,48.7z M881.9-6.6c-3.7-2.9-7.6-5.6-11.6-8.1
	l1.3-2c4,2.6,8,5.3,11.8,8.2L881.9-6.6z M641.3,25l-1.8-1.4c2.9-3.8,6-7.5,9.2-11l1.7,1.6C647.2,17.6,644.2,21.3,641.3,25L641.3,25z
	 M858-21.8c-4.2-2.2-8.5-4.3-12.8-6.1l0.9-2.1c4.4,1.9,8.7,4,13,6.2L858-21.8z M660.4,4.1l-1.6-1.7c3.5-3.3,7.2-6.4,10.9-9.3
	l1.4,1.8C667.4-2.2,663.8,0.9,660.4,4.1z M832-33c-4.5-1.5-9-2.8-13.6-3.9l0.6-2.3c4.6,1.1,9.3,2.5,13.8,4L832-33z M682.6-13.4
	l-1.3-1.9c4-2.6,8.1-5.1,12.3-7.4l1.1,2C690.6-18.5,686.5-16,682.6-13.4z M804.5-39.8c-4.6-0.7-9.4-1.3-14.1-1.6l0.2-2.3
	c4.8,0.4,9.6,0.9,14.3,1.7L804.5-39.8z M707.4-27l-0.9-2.1c4.4-1.9,8.8-3.7,13.4-5.3l0.8,2.2C716.2-30.7,711.7-28.9,707.4-27z
	 M776.2-41.9c-4.7,0-9.5,0.3-14.2,0.7l-0.2-2.3c4.8-0.4,9.6-0.7,14.3-0.7L776.2-41.9z M734.2-36.4l-0.6-2.3c4.6-1.2,9.3-2.2,14-3
	l0.4,2.3C743.4-38.5,738.7-37.5,734.2-36.4z"/>
<path class="st0" d="M931.2,53c-1-2.1-2.1-4.1-3.2-6.2l2-1.1c1.1,2,2.2,4.2,3.3,6.2L931.2,53z"/>
<path class="st1" d="M993.9,624.1L884.7,435l-24.5-42.4l-56.6-98l-28.1-48.7l-28.1,48.7l-56.6,98L666.4,435l-10.5,18.1h100.9v-60.5
	h25v231.5H993.9z M853.8,526.6c7.7,0,14,6.3,14,14c0,7.7-6.3,14-14,14c-7.7,0-14-6.3-14-14c0,0,0,0,0,0
	C839.8,532.9,846.1,526.6,853.8,526.6L853.8,526.6z M772.9,342.4l-15.7-16.9l16.9-15.7l15.7,16.9L772.9,342.4z"/>
<circle class="st2" cx="757.6" cy="196.7" r="11.7"/>
<path class="st2" d="M771.1,27.6c-62.5,12-103.4,72.5-91.4,135c12,62.5,72.5,103.4,135,91.4c62.5-12,103.4-72.5,91.4-135l0,0
	C894.1,56.5,833.6,15.6,771.1,27.6z M760.3,210.4c-7.6,1.5-15-3.5-16.4-11.1c-1.5-7.6,3.5-15,11.1-16.4c7.6-1.5,15,3.5,16.4,11.1v0
	C772.9,201.6,767.9,209,760.3,210.4z M838,108.1l-22.6,4.4L811,89.8l22.6-4.4L838,108.1z"/>
<circle class="st3" cx="551.3" cy="273" r="75.9"/>
<polygon class="st3" points="522,376.9 499.3,372.8 506.6,325.5 529.3,329.6 "/>
<rect x="548.2" y="335.4" transform="matrix(-0.984 -0.1781 0.1781 -0.984 1046.9849 806.0897)" class="st3" width="23.1" height="41.3"/>
<ellipse transform="matrix(-0.7631 -0.6463 0.6463 -0.7631 740.7274 1034.4674)" class="st3" cx="560" cy="381.5" rx="19.2" ry="7.2"/>
<ellipse transform="matrix(-0.7631 -0.6463 0.6463 -0.7631 663.248 1003.4306)" class="st3" cx="515.5" cy="380.2" rx="19.2" ry="7.2"/>
<circle class="st4" cx="556.6" cy="254.4" r="25.9"/>
<circle class="st0" cx="567.3" cy="245.1" r="8.6"/>
<path class="st1" d="M491.4,190.4c-1.1-28.1,23.1-51.9,54.1-53.2s57.1,20.5,58.2,48.6c1.1,28.1-20.4,34.5-51.4,35.7
	C521.3,222.9,492.6,218.5,491.4,190.4z"/>
<ellipse transform="matrix(-0.2234 -0.9747 0.9747 -0.2234 507.5526 922.7357)" class="st3" cx="621.4" cy="259.2" rx="11.9" ry="37.9"/>
<ellipse transform="matrix(-0.2234 -0.9747 0.9747 -0.2234 301.1518 807.8396)" class="st3" cx="472.4" cy="284" rx="11.9" ry="37.9"/>
<path class="st4" d="M530.4,302.9c-1.7,9.4,4.5,18.4,13.9,20.1c9.4,1.7,18.4-4.5,20.1-13.9c1.7-9.4-5.6-12.7-15-14.4
	C540.1,292.9,532.1,293.5,530.4,302.9z"/>
</svg>
